<?xml version="1.0" standalone="no"?>
<!DOCTYPE svg PUBLIC "-//W3C//DTD SVG 20010904//EN"
 "http://www.w3.org/TR/2001/REC-SVG-20010904/DTD/svg10.dtd">
<svg version="1.0" xmlns="http://www.w3.org/2000/svg"
 width="300.000000pt" height="300.000000pt" viewBox="0 0 300.000000 300.000000"
 preserveAspectRatio="xMidYMid meet">
<metadata>
Created by potrace 1.14, written by Peter Selinger 2001-2017
</metadata>
<g transform="translate(0.000000,300.000000) scale(0.100000,-0.100000)"
fill="#000000" stroke="none">
<path d="M1350 2993 c-189 -28 -339 -66 -420 -108 -16 -8 -32 -15 -35 -15 -5
1 -82 -37 -160 -79 -121 -66 -306 -228 -411 -361 -221 -280 -327 -599 -319
-960 4 -159 5 -169 24 -261 6 -30 13 -63 15 -74 12 -61 70 -213 119 -315 27
-56 108 -184 119 -188 4 -2 8 -8 8 -14 0 -14 91 -120 170 -197 66 -64 211
-179 240 -189 8 -3 28 -15 45 -26 32 -22 159 -85 210 -103 17 -6 39 -14 50
-19 60 -22 197 -55 284 -69 92 -14 338 -17 405 -4 23 4 55 9 71 12 50 8 169
37 190 46 11 4 58 23 105 41 286 111 547 330 713 597 62 101 134 252 153 323
36 134 46 170 50 200 3 19 10 55 14 80 11 61 5 361 -9 435 -29 153 -73 289
-135 415 -35 71 -101 183 -125 212 -6 7 -32 40 -58 73 -53 66 -146 161 -213
215 -53 44 -148 110 -157 110 -3 0 -14 6 -22 14 -26 23 -191 102 -271 129
-176 60 -281 79 -470 81 -85 2 -166 1 -180 -1z"/>
</g>
</svg>
